<?xml version="1.0" encoding="utf-8"?>
<!-- Generator: Adobe Illustrator 23.0.0, SVG Export Plug-In . SVG Version: 6.00 Build 0)  -->
<svg version="1.1" id="레이어_1" xmlns="http://www.w3.org/2000/svg" xmlns:xlink="http://www.w3.org/1999/xlink" x="0px"
	 y="0px" viewBox="0 0 24 24" style="enable-background:new 0 0 24 24;" xml:space="preserve">
<style type="text/css">
	.st0{fill:none;stroke:#222222;stroke-width:1.5;stroke-miterlimit:10;}
</style>
<g>
	<path class="st0" d="M8.8,2.56H4.46c-1.1,0-1.99,0.89-1.99,1.99v4.33c0,1.1,0.89,1.99,1.99,1.99H8.8c1.1,0,1.99-0.89,1.99-1.99
		V4.55C10.79,3.45,9.89,2.56,8.8,2.56z"/>
	<path class="st0" d="M19.54,2.56H15.2c-1.1,0-1.99,0.89-1.99,1.99v4.33c0,1.1,0.89,1.99,1.99,1.99h4.33c1.1,0,1.99-0.89,1.99-1.99
		V4.55C21.53,3.45,20.63,2.56,19.54,2.56z"/>
	<path class="st0" d="M8.8,13.13H4.46c-1.1,0-1.99,0.89-1.99,1.99v4.33c0,1.1,0.89,1.99,1.99,1.99H8.8c1.1,0,1.99-0.89,1.99-1.99
		v-4.33C10.79,14.02,9.89,13.13,8.8,13.13z"/>
	<path class="st0" d="M19.54,13.13H15.2c-1.1,0-1.99,0.89-1.99,1.99v4.33c0,1.1,0.89,1.99,1.99,1.99h4.33c1.1,0,1.99-0.89,1.99-1.99
		v-4.33C21.53,14.02,20.63,13.13,19.54,13.13z"/>
</g>
</svg>
