<?xml version="1.0" encoding="utf-8"?>
<!-- Generator: Adobe Illustrator 23.0.0, SVG Export Plug-In . SVG Version: 6.00 Build 0)  -->
<svg version="1.1" id="Layer_1" xmlns="http://www.w3.org/2000/svg" xmlns:xlink="http://www.w3.org/1999/xlink" x="0px" y="0px"
	 viewBox="0 0 64 64" style="enable-background:new 0 0 64 64;" xml:space="preserve">
<style type="text/css">
	.st0{fill:#222222;}
</style>
<path class="st0" d="M44.72,7.97c-6.76,0-10.68,3.99-12.72,6.28c-2.04-2.29-5.96-6.28-12.72-6.28c-8.1,0-14.69,6.59-14.69,14.69
	c0,9.79,5.58,15.71,26.18,32.46L32,56.19l1.22-1.06c20.61-16.76,26.19-22.69,26.19-32.47C59.41,14.56,52.82,7.97,44.72,7.97z
	 M55.48,22.66c0,7.95-5.01,13.24-23.48,28.4C13.53,35.89,8.52,30.61,8.52,22.66c0-5.93,4.83-10.76,10.76-10.76
	c5.49,0,8.48,3.42,10.66,5.91L32,20.15l2.06-2.34c2.18-2.49,5.17-5.91,10.66-5.91C50.66,11.9,55.48,16.72,55.48,22.66z"/>
</svg>
