<?xml version="1.0" encoding="utf-8"?>
<!-- Generator: Adobe Illustrator 23.0.0, SVG Export Plug-In . SVG Version: 6.00 Build 0)  -->
<svg version="1.1" id="레이어_1" xmlns="http://www.w3.org/2000/svg" xmlns:xlink="http://www.w3.org/1999/xlink" x="0px"
	 y="0px" viewBox="0 0 32 32" style="enable-background:new 0 0 32 32;" xml:space="preserve">
<style type="text/css">
	.st0{fill:#888888;}
</style>
<g>
	<g>
		<path class="st0" d="M23.6,29.93H8.4c-2.8,0-5-2.5-5-5.3c0-0.1,0-0.2,0.1-0.4c1.9-5.1,6.1-9.1,11.6-9.1h2.1c5.5,0,9.3,4,11.3,9.1
			c0,0.1,0.1,0.2,0.1,0.4C28.6,27.43,26.4,29.93,23.6,29.93z M5.4,24.93c0.1,1.6,1.4,2.8,3,2.8h15.2c1.6,0,2.9-1.2,3-2.8
			c-1.7-4.3-4.7-7.7-9.3-7.7h-2.1C10.5,17.23,7.1,20.63,5.4,24.93z"/>
	</g>
	<path class="st0" d="M16.1,14.63c-3.3,0-6-2.7-6-6s2.7-6,6-6s6,2.7,6,6S19.4,14.63,16.1,14.63z M16.1,4.63c-2.2,0-4,1.8-4,4
		s1.8,4,4,4s4-1.8,4-4S18.3,4.63,16.1,4.63z"/>
	<title></title>
</g>
</svg>
