<?xml version="1.0" encoding="utf-8"?>
<!-- Generator: Adobe Illustrator 23.0.0, SVG Export Plug-In . SVG Version: 6.00 Build 0)  -->
<svg version="1.1" id="레이어_1" xmlns="http://www.w3.org/2000/svg" xmlns:xlink="http://www.w3.org/1999/xlink" x="0px"
	 y="0px" viewBox="0 0 24 24" style="enable-background:new 0 0 24 24;" xml:space="preserve">
<style type="text/css">
	.st0{fill:#888888;}
</style>
<title></title>
<g>
	<path class="st0" d="M19.4,23H4.6c-1.5,0-2.8-1.2-2.8-2.8v-9.2c0-0.5,0.4-0.9,0.9-0.9s0.9,0.4,0.9,0.9v9.2c0,0.5,0.4,0.9,0.9,0.9
		h14.8c0.5,0,0.9-0.4,0.9-0.9v-9.2c0-0.5,0.4-0.9,0.9-0.9c0.5,0,0.9,0.4,0.9,0.9v9.2C22.2,21.8,20.9,23,19.4,23z"/>
	<path class="st0" d="M11.1,23H6.5c-0.5,0-0.9-0.4-0.9-0.9v-5.5c0-1.5,1.2-2.8,2.8-2.8h0.9c1.5,0,2.8,1.2,2.8,2.8v5.5
		C12,22.6,11.6,23,11.1,23z M7.4,21.2h2.8v-4.6c0-0.5-0.4-0.9-0.9-0.9H8.3c-0.5,0-0.9,0.4-0.9,0.9V21.2z"/>
	<path class="st0" d="M20.3,12c-2,0-3.7-1.6-3.7-3.7c0-0.5,0.4-0.9,0.9-0.9c0.5,0,0.9,0.4,0.9,0.9c0,1,0.8,1.8,1.8,1.8
		c1,0,1.8-0.8,1.8-1.8V7.6l-2.4-4.8H4.3L1.8,7.6v0.7c0,1,0.8,1.8,1.8,1.8s1.8-0.8,1.8-1.8c0-0.5,0.4-0.9,0.9-0.9s0.9,0.4,0.9,0.9
		c0,2-1.7,3.7-3.7,3.7S0,10.4,0,8.3V7.4C0,7.3,0,7.1,0.1,7l2.8-5.5C3,1.2,3.3,1,3.7,1h16.6c0.3,0,0.7,0.2,0.8,0.5L23.9,7
		C24,7.1,24,7.3,24,7.4v0.9C24,10.4,22.3,12,20.3,12z"/>
	<path class="st0" d="M9.2,12c-2,0-3.7-1.6-3.7-3.7c0-0.5,0.4-0.9,0.9-0.9s0.9,0.4,0.9,0.9c0,1,0.8,1.8,1.8,1.8s1.8-0.8,1.8-1.8
		c0-0.5,0.4-0.9,0.9-0.9c0.5,0,0.9,0.4,0.9,0.9C12.9,10.4,11.3,12,9.2,12z"/>
	<path class="st0" d="M14.8,12c-2,0-3.7-1.6-3.7-3.7c0-0.5,0.4-0.9,0.9-0.9c0.5,0,0.9,0.4,0.9,0.9c0,1,0.8,1.8,1.8,1.8
		s1.8-0.8,1.8-1.8c0-0.5,0.4-0.9,0.9-0.9c0.5,0,0.9,0.4,0.9,0.9C18.5,10.4,16.8,12,14.8,12z"/>
	<path class="st0" d="M17.5,16.6h-2.8c-0.5,0-0.9-0.4-0.9-0.9s0.4-0.9,0.9-0.9h2.8c0.5,0,0.9,0.4,0.9,0.9S18,16.6,17.5,16.6z"/>
</g>
</svg>
