<?xml version="1.0" encoding="utf-8"?>
<!-- Generator: Adobe Illustrator 23.0.0, SVG Export Plug-In . SVG Version: 6.00 Build 0)  -->
<svg version="1.1" id="Layer_1" xmlns="http://www.w3.org/2000/svg" xmlns:xlink="http://www.w3.org/1999/xlink" x="0px" y="0px"
	 viewBox="0 0 24 24" style="enable-background:new 0 0 24 24;" xml:space="preserve">
<style type="text/css">
	.st0{fill:#222222;}
</style>
<path class="st0" d="M21.25,8.4l-7.58-6.09c-0.99-0.88-2.54-0.88-3.53-0.01L2.76,8.39C2.38,8.65,2.15,9.02,2.15,9.4V21
	c0,0.73,0.62,1.06,1.35,1.06h5.1c0.73,0,1.35-0.33,1.35-1.06v-7.05h4V21c0,0.73,0.62,1.06,1.35,1.06h5.1c0.73,0,1.35-0.33,1.35-1.06
	V9.44C21.85,9.07,21.66,8.68,21.25,8.4z M14.2,12.35H9.8c-0.74,0-1.35,0.61-1.35,1.35v7.05h-4.6V9.52l7.51-6.02
	c0.41-0.33,1.08-0.33,1.49,0l7.5,6.02l-0.19,11.23h-4.6V13.7C15.55,12.96,14.94,12.35,14.2,12.35z"/>
</svg>
