<?xml version="1.0" encoding="utf-8"?>
<!-- Generator: Adobe Illustrator 23.0.0, SVG Export Plug-In . SVG Version: 6.00 Build 0)  -->
<svg version="1.1" id="Layer_1" xmlns="http://www.w3.org/2000/svg" xmlns:xlink="http://www.w3.org/1999/xlink" x="0px" y="0px"
	 viewBox="0 0 64 64" style="enable-background:new 0 0 64 64;" xml:space="preserve">
<style type="text/css">
	.st0{fill:#FFFFFF;}
</style>
<path class="st0" d="M44.7,8C38,8,34,12,32,14.3C30,12,26,8,19.3,8C11.2,8,4.6,14.6,4.6,22.7c0,9.8,5.6,15.7,26.2,32.5l1.2,1.1
	l1.2-1.1c20.6-16.8,26.2-22.7,26.2-32.5C59.4,14.6,52.8,8,44.7,8z M55.5,22.7c0,8-5,13.2-23.5,28.4C13.5,35.9,8.5,30.6,8.5,22.7
	c0-5.9,4.8-10.8,10.8-10.8c5.5,0,8.5,3.4,10.7,5.9l2.1,2.3l2.1-2.3c2.2-2.5,5.2-5.9,10.7-5.9C50.7,11.9,55.5,16.7,55.5,22.7z"/>
</svg>
