<?xml version="1.0" encoding="utf-8"?>
<!-- Generator: Adobe Illustrator 23.0.0, SVG Export Plug-In . SVG Version: 6.00 Build 0)  -->
<svg version="1.1" id="레이어_1" xmlns="http://www.w3.org/2000/svg" xmlns:xlink="http://www.w3.org/1999/xlink" x="0px"
	 y="0px" viewBox="0 0 360 360" style="enable-background:new 0 0 360 360;" xml:space="preserve">
<style type="text/css">
	.st0{fill:#AAAAAA;}
</style>
<path class="st0" d="M258.29,236.14c6.23,6.21,12.37,12.32,18.49,18.44c9.94,9.94,19.92,19.85,29.8,29.84
	c4.2,4.24,5.73,9.35,3.95,15.16c-1.73,5.63-5.62,9.12-11.35,10.34c-5.79,1.23-10.5-0.93-14.57-5.03
	c-14.88-14.94-29.81-29.83-44.71-44.76c-0.9-0.91-1.65-1.98-2.52-3.03c-28.54,20.69-59.62,27.7-93.52,19.9
	c-26.84-6.18-48.45-20.85-64.58-43.14C46.38,188.35,52.51,125.52,93.33,87.34c41.17-38.51,103.99-40.43,147.37-4.55
	C285.17,119.56,295.47,186.38,258.29,236.14z M169.56,249.97c45.05,0.01,81.27-36.11,81.39-81.17
	c0.13-45.17-36.14-81.54-81.34-81.59c-45.02-0.05-81.27,36.12-81.38,81.18C88.12,213.59,124.37,249.96,169.56,249.97z"/>
</svg>
