<?xml version="1.0" encoding="utf-8"?>
<!-- Generator: Adobe Illustrator 23.0.0, SVG Export Plug-In . SVG Version: 6.00 Build 0)  -->
<svg version="1.1" id="레이어_1" xmlns="http://www.w3.org/2000/svg" xmlns:xlink="http://www.w3.org/1999/xlink" x="0px"
	 y="0px" viewBox="0 0 360 360" style="enable-background:new 0 0 360 360;" xml:space="preserve">
<style type="text/css">
	.st0{fill:#FFFFFF;}
</style>
<g>
	<path class="st0" d="M112.4,108c-6.2-43.3,28.2-78.9,67.6-78.9c39.9,0,73.7,36.1,67.6,78.9c2.8,0,5.6,0,8.3,0
		c21.6,0,37.2,15.6,38,37.2c1.5,38,5.3,75.9,7,113.9c0.5,10.6,1,21.3,1.5,31.9c1,22.6-15.1,39.7-37.7,39.7c-56.5,0-113,0-169.4,0
		c-22.4,0-38.8-17-37.8-39.3c1.2-26.3,1.6-52.6,2.9-78.9c1.1-22.9,4.7-45.6,5.7-68.4c0.9-20.8,16.8-36.1,37.6-36.2
		C106.6,108,109.3,108,112.4,108z M180,308.3c28.1,0,56.2,0,84.3,0c9.8,0,15.7-6,15.5-15.8c-0.1-4.8-0.5-9.6-0.7-14.4
		c-1-21.5-2-43-3-64.6c-1.1-23.3-3.6-46.5-5.3-69.6c-0.6-8-6.4-13.3-14.4-13.3c-51-0.1-101.9-0.1-152.9,0
		c-14.3,0-14.4,13.7-15.8,24.4c-2.9,23.4-3.3,46.9-4.4,70.5c-1.1,21.9-2,43.8-3.3,65.6c-0.7,12.2,7.6,17.5,17,17.4
		C124.7,308.1,152.3,308.3,180,308.3z M135.2,107.8c30,0,59.8,0,90,0c-0.3-5.8-0.1-11.5-0.9-17c-2.7-18.2-12.9-30.8-30.3-36.5
		c-17.7-5.9-33.5-1.6-46.6,11.7C136,77.5,133.9,92.1,135.2,107.8z"/>
</g>
</svg>
