<?xml version="1.0" encoding="utf-8"?>
<!-- Generator: Adobe Illustrator 23.0.0, SVG Export Plug-In . SVG Version: 6.00 Build 0)  -->
<svg version="1.1" id="레이어_1" xmlns:sketch="http://www.bohemiancoding.com/sketch/ns"
	 xmlns="http://www.w3.org/2000/svg" xmlns:xlink="http://www.w3.org/1999/xlink" x="0px" y="0px" viewBox="0 0 16 16"
	 style="enable-background:new 0 0 16 16;" xml:space="preserve">
<style type="text/css">
	.st0{fill-rule:evenodd;clip-rule:evenodd;fill:#FFFFFF;}
</style>
<title></title>
<desc></desc>
<g id="Page-1">
	<g id="Core" transform="translate(-424.000000, -4.000000)">
		<g id="arrow-back" transform="translate(424.000000, 4.000000)">
			<path id="Shape_1_" class="st0" d="M4.3,7.2L8.4,3c0.3-0.3,0.3-0.9,0-1.2l0,0c-0.3-0.3-0.9-0.3-1.2,0L1.7,7.4
				c-0.3,0.3-0.3,0.9,0,1.2l5.5,5.5c0.3,0.3,0.9,0.3,1.2,0l0,0c0.3-0.3,0.3-0.9,0-1.2L4.3,8.8h9.4c0.5,0,0.8-0.4,0.8-0.8v0
				c0-0.5-0.4-0.8-0.8-0.8H4.3z"/>
		</g>
	</g>
</g>
</svg>
