<?xml version="1.0" encoding="utf-8"?>
<!-- Generator: Adobe Illustrator 23.0.0, SVG Export Plug-In . SVG Version: 6.00 Build 0)  -->
<svg version="1.1" id="레이어_1" xmlns="http://www.w3.org/2000/svg" xmlns:xlink="http://www.w3.org/1999/xlink" x="0px"
	 y="0px" viewBox="0 0 448 512" style="enable-background:new 0 0 448 512;" xml:space="preserve">
<style type="text/css">
	.st0{fill:#FFFFFF;}
</style>
<path class="st0" d="M404,177.7c0-12.8-9-22.8-20.6-22.8H328l9.3-55.8c1.9-11.2-5.7-21.8-16.9-23.7c-11.2-1.8-21.8,5.8-23.7,16.9
	l-10.4,62.5h-91.1l9.3-55.8c1.9-11.2-5.7-21.8-16.9-23.7c-11.2-1.8-21.8,5.8-23.7,16.9l-10.4,62.5H91.1c-11.3,0-20.6,9.2-20.6,20.6
	c0,11.7,8.8,20.6,20.6,20.6h55.4l-19.7,118.3H64.6c-11.3,0-20.6,9.2-20.6,20.6c0,11.1,9,19.8,20.6,19.8H120l-9.3,55.8
	c-1.9,11.2,5.7,21.8,16.9,23.7l2.2,0.4l1.2,1.4c0,0,0,0,0,0c10.1,0,18.6-7.2,20.3-17.2l10.4-62.5h91.1l-9.3,55.8
	c-1.9,11.2,5.7,21.8,16.9,23.7c1,0.2,2.1,0.3,3.4,0.3c10.1,0,18.6-7.2,20.3-17.2l10.4-62.5h62.3c11.2,0,20.6-9.1,20.6-19.8
	c0-11.3-9.2-20.6-20.6-20.6h-55.4l19.7-118.3h62.3C394.6,197.5,404,188.4,404,177.7z M259.7,314.3h-91.1L188.3,196h91.1L259.7,314.3
	z"/>
</svg>
