<?xml version="1.0" encoding="utf-8"?>
<!-- Generator: Adobe Illustrator 23.0.0, SVG Export Plug-In . SVG Version: 6.00 Build 0)  -->
<svg version="1.1" id="레이어_1" xmlns="http://www.w3.org/2000/svg" xmlns:xlink="http://www.w3.org/1999/xlink" x="0px"
	 y="0px" viewBox="0 0 360 360" style="enable-background:new 0 0 360 360;" xml:space="preserve">
<g>
	<path d="M112.45,108.03c-6.16-43.32,28.24-78.9,67.55-78.86c39.95,0.04,73.68,36.05,67.56,78.86c2.82,0,5.57,0,8.33,0
		c21.56,0.03,37.18,15.61,38.03,37.21c1.49,37.98,5.27,75.93,7.02,113.94c0.49,10.65,1.02,21.29,1.52,31.94
		c1.05,22.62-15.15,39.69-37.73,39.69c-56.48,0.01-112.96,0.01-169.44,0c-22.42-0.01-38.76-17-37.75-39.34
		c1.19-26.28,1.59-52.6,2.88-78.88c1.13-22.88,4.72-45.58,5.74-68.4c0.93-20.76,16.8-36.11,37.61-36.16
		C106.56,108.03,109.35,108.03,112.45,108.03z M179.98,308.34c28.11,0,56.23,0.02,84.34-0.01c9.84-0.01,15.71-5.99,15.54-15.84
		c-0.09-4.8-0.45-9.59-0.67-14.39c-1.01-21.52-2-43.04-3.02-64.57c-1.11-23.3-3.63-46.49-5.28-69.65
		c-0.57-8.04-6.37-13.32-14.42-13.33c-50.96-0.06-101.91-0.06-152.87,0c-14.3,0.02-14.42,13.72-15.76,24.39
		c-2.94,23.41-3.31,46.95-4.45,70.49c-1.06,21.87-1.99,43.75-3.31,65.61c-0.74,12.17,7.56,17.51,16.97,17.41
		C124.69,308.15,152.33,308.34,179.98,308.34z M135.23,107.79c30.02,0,59.8,0,90.04,0c-0.29-5.85-0.11-11.51-0.92-17.02
		c-2.68-18.2-12.93-30.77-30.27-36.53c-17.66-5.87-33.53-1.58-46.63,11.68C135.99,77.53,133.95,92.11,135.23,107.79z"/>
</g>
</svg>
