<?xml version="1.0" encoding="utf-8"?>
<!-- Generator: Adobe Illustrator 23.0.0, SVG Export Plug-In . SVG Version: 6.00 Build 0)  -->
<svg version="1.1" id="Layer_1" xmlns="http://www.w3.org/2000/svg" xmlns:xlink="http://www.w3.org/1999/xlink" x="0px" y="0px"
	 viewBox="0 0 24 24" style="enable-background:new 0 0 24 24;" xml:space="preserve">
<style type="text/css">
	.st0{fill:#222222;}
</style>
<g>
	<g>
		<path class="st0" d="M16.9,21c-0.2,0-0.4,0-0.6-0.1c0,0-0.1,0-0.1-0.1L12,18.4l-4.1,2.3c0,0-0.1,0-0.1,0.1C7.3,21,6.7,21,6.3,20.7
			c-0.5-0.3-0.7-0.9-0.6-1.5l1-4.6c-0.4-0.3-1-0.9-1.6-1.5l-1.9-1.7l-0.1-0.1c-0.4-0.4-0.5-1-0.3-1.5s0.6-0.9,1.2-1h0.1l4.7-0.5
			L10.7,4c0,0,0-0.1,0.1-0.1C11,3.3,11.5,3,12,3s1,0.3,1.3,0.8c0,0,0,0.1,0.1,0.1l1.9,4.3L20,8.7h0.1c0.5,0.1,1,0.5,1.2,1
			s0,1.1-0.3,1.5l-0.1,0.1l-3.5,3.2l1,4.6c0.1,0.6-0.1,1.2-0.6,1.5C17.5,20.9,17.2,21,16.9,21z"/>
	</g>
</g>
</svg>
