<?xml version="1.0" encoding="utf-8"?>
<!-- Generator: Adobe Illustrator 23.0.0, SVG Export Plug-In . SVG Version: 6.00 Build 0)  -->
<svg version="1.1" id="Layer_1" xmlns="http://www.w3.org/2000/svg" xmlns:xlink="http://www.w3.org/1999/xlink" x="0px" y="0px"
	 viewBox="0 0 24 24" style="enable-background:new 0 0 24 24;" xml:space="preserve">
<style type="text/css">
	.st0{fill:#222222;}
</style>
<g>
	<g>
		<path class="st0" d="M16.9,21c-0.2,0-0.4,0-0.6-0.1c0,0-0.1,0-0.1-0.1L12,18.4l-4.1,2.3c0,0-0.1,0-0.1,0.1
			c-0.5,0.2-1.1,0.2-1.5-0.1c-0.5-0.3-0.7-0.9-0.6-1.5l1-4.6c-0.4-0.3-1-0.9-1.6-1.5l-1.9-1.7c0,0-0.1-0.1-0.1-0.1
			c-0.4-0.4-0.5-1-0.3-1.5c0.2-0.5,0.6-0.9,1.2-1c0,0,0.1,0,0.1,0l4.7-0.5l1.9-4.3c0,0,0-0.1,0.1-0.1C11,3.3,11.5,3,12,3
			c0.5,0,1,0.3,1.3,0.8c0,0,0,0.1,0.1,0.1l1.9,4.3L20,8.7c0,0,0.1,0,0.1,0c0.5,0.1,1,0.5,1.2,1c0.2,0.5,0,1.1-0.3,1.5
			c0,0-0.1,0.1-0.1,0.1l-3.5,3.2l1,4.6c0.1,0.6-0.1,1.2-0.6,1.5C17.5,20.9,17.2,21,16.9,21z M8.7,14.4c0,0.2-0.5,2.2-0.8,4.1
			l3.6-2.1c0.3-0.2,0.7-0.2,1,0l3.6,2.1l-0.8-4.1c-0.1-0.3,0-0.7,0.3-0.9l3.1-2.8l-4.2-0.5c-0.4,0-0.7-0.3-0.8-0.6L12,5.7l-1.7,3.8
			c-0.1,0.3-0.4,0.5-0.8,0.6l-4.2,0.5l3.1,2.8C8.7,13.7,8.8,14.1,8.7,14.4z"/>
	</g>
</g>
</svg>
