<?xml version="1.0" encoding="utf-8"?>
<!-- Generator: Adobe Illustrator 23.0.0, SVG Export Plug-In . SVG Version: 6.00 Build 0)  -->
<svg version="1.1" id="Icons" xmlns="http://www.w3.org/2000/svg" xmlns:xlink="http://www.w3.org/1999/xlink" x="0px" y="0px"
	 viewBox="0 0 80 80" style="enable-background:new 0 0 80 80;" xml:space="preserve">
<style type="text/css">
	.st0{fill:#666666;}
</style>
<g>
	<path class="st0" d="M14.8,64.4h50.4c2.1,0,3.8,1.7,3.8,3.8v0c0,2.1-1.7,3.8-3.8,3.8H14.8c-2.1,0-3.8-1.7-3.8-3.8v0
		C11,66.1,12.7,64.4,14.8,64.4z"/>
	<path class="st0" d="M67,28L67,28c-1.5-1.5-3.9-1.5-5.4,0L43.8,45.8v-34C43.8,9.7,42.1,8,40,8h0c-2.1,0-3.8,1.7-3.8,3.8v33.7
		L18.7,28c-1.5-1.5-3.9-1.5-5.4,0l0,0c-1.5,1.5-1.5,3.9,0,5.4l24.2,24.1c1.5,1.5,3.9,1.5,5.4,0L67,33.4C68.5,31.9,68.5,29.5,67,28z"
		/>
</g>
</svg>
